<?xml version="1.0" standalone="no"?>
<!DOCTYPE svg PUBLIC "-//W3C//DTD SVG 20010904//EN"
 "http://www.w3.org/TR/2001/REC-SVG-20010904/DTD/svg10.dtd">
<svg version="1.0" xmlns="http://www.w3.org/2000/svg"
 width="1024.000000pt" height="476.000000pt" viewBox="0 0 1024.000000 476.000000"
 preserveAspectRatio="xMidYMid meet">

<g transform="translate(0.000000,476.000000) scale(0.100000,-0.100000)"
fill="#000000" stroke="none">
<path d="M3481 4527 c-13 -6 -37 -36 -53 -65 -16 -30 -47 -79 -70 -110 -39
-52 -62 -93 -164 -287 -20 -38 -44 -97 -54 -130 -10 -33 -43 -107 -75 -165
-69 -126 -72 -152 -21 -214 40 -49 62 -93 53 -103 -4 -3 -15 1 -24 9 -10 8
-39 26 -64 41 -35 20 -49 23 -57 15 -18 -18 -16 -22 36 -59 42 -30 112 -96
112 -105 0 -12 -29 1 -77 36 -31 22 -60 40 -65 40 -20 0 -5 -22 27 -42 20 -11
34 -22 33 -24 -5 -4 -166 23 -208 36 -19 5 -57 10 -85 10 -93 0 -98 35 -9 60
24 7 43 18 41 24 -2 6 3 17 12 24 14 11 12 12 -14 6 -16 -4 -46 -8 -65 -8 -40
-1 -50 -10 -50 -47 0 -42 -20 -57 -89 -64 l-63 -7 2 83 c4 127 4 127 -35 150
-48 29 -52 55 -22 141 15 40 29 89 32 108 9 50 52 162 96 252 38 78 147 233
164 233 13 0 23 -49 41 -200 17 -143 35 -500 27 -522 -3 -8 -32 -27 -65 -44
-53 -27 -79 -52 -66 -64 2 -3 28 -2 56 2 55 6 72 23 25 23 -26 0 -24 3 20 27
48 27 60 48 60 102 -4 238 -42 612 -69 679 -23 57 -38 46 -158 -120 -21 -29
-45 -69 -53 -88 -8 -19 -23 -53 -33 -75 -10 -22 -26 -62 -36 -90 -9 -27 -21
-54 -25 -60 -4 -5 -12 -37 -19 -70 -7 -33 -21 -85 -31 -116 -23 -70 -17 -91
32 -123 21 -15 39 -33 39 -41 0 -19 0 -19 -70 10 -70 29 -88 32 -70 10 7 -8
21 -15 32 -15 15 0 18 -5 13 -19 -5 -17 1 -21 37 -28 50 -10 53 -25 6 -34
l-33 -6 38 -2 c23 -1 37 -6 37 -14 0 -8 -17 -19 -37 -25 l-38 -11 39 5 c46 6
46 -13 0 -35 -16 -8 -46 -23 -66 -33 l-38 -19 0 26 c0 20 -6 27 -31 32 -23 4
-36 16 -54 52 -13 25 -47 71 -76 101 -28 30 -57 69 -65 86 -17 40 -63 87 -113
115 -39 21 -51 42 -51 87 0 33 -92 242 -107 242 -19 0 -30 -29 -38 -97 -4 -35
-10 -63 -14 -63 -4 0 -18 23 -32 52 -45 97 -65 66 -63 -97 1 -55 5 -127 9
-161 6 -51 4 -69 -14 -108 -30 -69 -34 -107 -21 -184 8 -50 9 -81 1 -108 -12
-42 7 -135 37 -186 15 -25 15 -29 -2 -47 -22 -25 -56 -34 -56 -15 0 44 -49
-22 -138 -186 -19 -36 -40 -72 -46 -80 -26 -34 -54 -98 -66 -150 -7 -30 -17
-71 -21 -91 -15 -61 -41 -85 -116 -103 -127 -32 -174 -74 -160 -144 4 -16 -2
-48 -16 -80 l-21 -54 -43 7 c-56 8 -56 -9 0 -27 36 -11 42 -17 45 -44 3 -29 0
-32 -34 -39 -51 -9 -164 -55 -164 -66 0 -13 9 -12 90 16 40 14 82 25 91 25 17
0 17 -3 4 -41 -8 -22 -25 -49 -37 -60 l-23 -19 26 6 c25 5 28 2 48 -57 22 -66
21 -79 -9 -79 -37 0 -70 -22 -70 -48 0 -30 -26 -67 -115 -162 -134 -142 -202
-206 -232 -219 -21 -8 -29 -18 -26 -29 2 -10 -10 -30 -32 -50 -19 -19 -33 -38
-30 -43 4 -5 -5 -24 -19 -42 -15 -19 -26 -42 -26 -51 0 -10 -9 -29 -20 -43
-11 -14 -20 -33 -20 -41 0 -9 -11 -27 -24 -41 -36 -39 -66 -102 -66 -138 0
-17 -10 -48 -22 -69 -13 -23 -22 -55 -23 -88 0 -28 -5 -59 -9 -69 -5 -10 -4
-17 2 -17 11 0 22 33 22 70 0 15 5 31 10 36 6 6 12 21 15 34 2 13 14 33 25 45
11 12 20 28 20 37 0 15 83 58 114 58 8 0 36 -21 61 -46 50 -49 63 -51 82 -13
13 26 7 215 -8 257 -11 29 -24 28 -93 -9 -58 -32 -58 -32 -51 -8 4 13 18 36
32 50 18 20 21 28 11 32 -8 3 4 20 35 47 37 32 45 45 35 52 -10 6 -7 14 15 31
15 13 27 28 27 35 0 6 26 31 58 54 31 23 78 61 104 84 30 26 80 55 135 77 120
48 146 52 178 31 14 -9 49 -18 78 -19 62 -4 155 -43 213 -90 45 -37 139 -95
154 -95 22 0 7 18 -32 40 -24 12 -74 46 -113 75 -67 50 -145 85 -190 85 -11 0
-25 4 -31 9 -5 5 -32 14 -61 19 -67 12 -151 -1 -219 -35 -61 -30 -81 -25 -39
9 45 36 48 39 104 110 29 36 64 69 76 72 21 5 23 10 18 44 -3 20 -11 48 -18
62 -19 38 -25 98 -14 128 5 14 12 61 15 104 3 52 11 89 24 113 15 26 18 46 14
77 -4 30 -1 49 9 62 13 18 19 19 55 8 44 -13 82 -56 82 -91 0 -12 5 -21 10
-21 6 0 10 16 10 35 0 28 -8 40 -45 72 -56 46 -45 54 55 39 60 -10 74 -15 72
-28 -1 -9 6 -19 18 -23 11 -3 19 -11 17 -17 -1 -6 4 -13 12 -15 10 -4 11 1 6
18 -12 40 -35 69 -61 79 -13 5 -24 15 -24 22 0 15 40 43 56 40 6 -1 16 21 22
49 15 63 15 72 0 63 -24 -15 3 79 49 164 102 193 115 215 123 202 6 -9 13 -3
25 19 9 19 22 31 29 28 8 -3 29 10 47 29 33 34 66 43 86 23 7 -7 30 7 78 50
38 33 72 58 77 55 5 -3 40 11 79 31 38 20 149 59 247 87 209 60 292 68 527 48
148 -12 191 -22 180 -41 -4 -5 -1 -9 6 -9 9 0 9 -3 0 -14 -10 -12 -3 -15 46
-21 32 -3 66 -10 75 -15 24 -13 28 -3 38 99 9 83 8 93 -14 143 -13 29 -33 62
-45 72 -29 26 -26 58 10 124 32 59 44 89 88 217 26 75 97 223 113 235 4 3 15
23 25 45 10 22 49 86 86 143 37 57 67 105 67 108 0 12 45 64 56 64 6 0 14 -12
17 -27 3 -16 10 -48 16 -73 17 -77 40 -229 57 -384 18 -162 16 -498 -4 -547
-9 -22 -26 -31 -99 -54 -110 -35 -138 -60 -146 -125 -3 -27 -13 -63 -22 -80
-9 -17 -15 -41 -13 -53 3 -20 4 -20 21 -2 18 17 21 16 115 -28 53 -25 108 -49
122 -52 58 -16 114 -65 75 -65 -24 0 -17 -16 13 -29 39 -18 122 -75 122 -84 0
-5 -13 -6 -30 -2 -45 10 -36 -10 13 -29 25 -9 65 -39 97 -73 30 -31 40 -45 22
-30 -20 16 -39 24 -49 20 -13 -5 -11 -10 13 -30 76 -60 76 -60 65 -82 -9 -16
-8 -21 8 -26 11 -3 38 -31 61 -61 32 -42 39 -58 30 -68 -8 -11 -2 -25 25 -60
32 -43 65 -113 65 -143 0 -7 14 -42 30 -78 17 -36 30 -71 30 -78 0 -6 12 -34
25 -62 14 -27 35 -88 46 -135 12 -47 25 -89 30 -94 14 -16 24 3 12 23 -6 10
-15 40 -19 66 -4 27 -38 124 -75 217 -38 93 -69 175 -69 182 0 7 -13 40 -30
72 -16 32 -30 66 -30 75 0 9 -22 50 -50 92 -27 42 -50 79 -50 82 0 3 -8 17
-17 32 -10 14 -18 33 -19 41 -2 8 -14 27 -28 41 -14 15 -26 30 -26 34 0 15
-62 92 -100 124 -21 19 -37 39 -34 46 8 21 -86 82 -171 113 -44 15 -96 37
-115 49 l-35 20 38 3 c39 3 42 22 3 22 -12 0 -31 7 -42 15 -18 14 -18 14 6 14
14 0 45 -4 69 -10 45 -10 66 -5 42 11 -8 4 -40 13 -72 19 -72 14 -81 35 -11
25 26 -4 72 -15 102 -25 61 -20 80 -23 80 -11 0 24 -92 50 -223 63 -28 3 53
17 108 19 76 3 40 17 -50 20 l-60 2 50 23 c28 13 60 24 73 24 42 2 79 29 96
71 13 33 16 80 16 258 -1 119 -5 249 -10 287 -6 39 -14 115 -20 170 -18 197
-57 346 -89 345 -3 0 -17 -6 -30 -13z m-1612 -567 c17 -41 31 -85 31 -97 0
-44 21 -74 75 -108 30 -20 62 -48 72 -63 58 -95 87 -134 108 -148 14 -9 36
-40 50 -69 14 -30 34 -56 44 -60 24 -7 34 -31 18 -42 -7 -5 -46 -22 -87 -37
-202 -76 -314 -130 -359 -173 -60 -57 -77 -54 -116 21 -27 53 -30 71 -33 165
-3 90 -2 107 13 118 24 17 24 92 1 105 -15 9 -15 13 7 53 23 40 24 48 15 122
-18 159 -19 179 -10 218 l8 40 27 -52 c24 -46 27 -64 27 -150 0 -55 4 -93 9
-88 4 6 14 75 20 155 12 141 24 191 41 174 5 -5 23 -43 39 -84z m-193 -439
c-2 -40 -16 -52 -16 -14 0 25 6 43 15 43 2 0 2 -13 1 -29z m1031 -37 c-3 -3
-12 -4 -19 -1 -8 3 -5 6 6 6 11 1 17 -2 13 -5z m343 -41 c28 -21 50 -41 50
-45 0 -12 -28 6 -75 47 -53 46 -38 45 25 -2z m-600 -37 c0 -3 -4 -8 -10 -11
-5 -3 -10 -1 -10 4 0 6 5 11 10 11 6 0 10 -2 10 -4z m-1827 -2293 c3 -21 6
-47 6 -58 0 -11 3 -51 6 -90 l6 -70 -21 25 c-11 14 -29 35 -39 48 -24 28 -58
28 -122 1 -27 -12 -52 -19 -55 -17 -15 15 15 63 65 107 49 42 123 89 143 91 3
0 8 -17 11 -37z"/>
<path d="M1756 3584 c-24 -24 -20 -80 6 -98 29 -21 51 -20 71 2 37 40 12 112
-38 112 -13 0 -31 -7 -39 -16z m68 -20 c10 -27 7 -61 -8 -73 -12 -10 -19 -8
-35 8 -24 24 -27 51 -9 69 17 17 45 15 52 -4z"/>
<path d="M1780 3541 c0 -24 18 -37 32 -23 8 8 7 16 -2 27 -17 21 -30 19 -30
-4z"/>
<path d="M3013 3253 c15 -2 37 -2 50 0 12 2 0 4 -28 4 -27 0 -38 -2 -22 -4z"/>
<path d="M1832 2663 c-49 -24 -96 -137 -94 -225 1 -58 22 -99 64 -130 69 -49
216 -20 287 56 14 14 32 26 41 26 25 0 32 12 14 25 -9 6 -20 36 -25 66 -5 30
-21 79 -36 109 -24 46 -35 57 -73 72 -57 22 -136 22 -178 1z m178 -31 c37 -27
77 -108 85 -170 6 -48 4 -57 -16 -79 -28 -29 -138 -83 -170 -83 -40 0 -99 20
-120 41 -22 22 -25 87 -8 183 13 76 25 92 86 117 55 22 105 19 143 -9z"/>
<path d="M1817 2522 c-21 -23 -23 -95 -2 -112 8 -6 22 -10 32 -8 15 3 18 14
18 68 0 71 -16 88 -48 52z"/>
<path d="M1437 2623 c-8 -13 -20 -83 -13 -83 7 0 29 81 23 87 -3 2 -7 1 -10
-4z"/>
<path d="M1450 2560 c0 -5 5 -10 10 -10 6 0 10 5 10 10 0 6 -4 10 -10 10 -5 0
-10 -4 -10 -10z"/>
<path d="M1525 2530 c3 -5 8 -10 11 -10 2 0 4 5 4 10 0 6 -5 10 -11 10 -5 0
-7 -4 -4 -10z"/>
<path d="M1140 2330 c-14 -26 11 -37 47 -21 21 9 23 14 13 26 -18 21 -47 19
-60 -5z"/>
<path d="M1852 2073 c4 -24 39 -29 308 -48 203 -13 284 -22 493 -52 23 -4 37
-2 37 5 0 14 -24 21 -112 32 -40 5 -129 16 -198 24 -171 21 -492 56 -514 56
-11 0 -16 -6 -14 -17z m136 -10 c-16 -2 -40 -2 -55 0 -16 2 -3 4 27 4 30 0 43
-2 28 -4z"/>
<path d="M1678 2012 c-16 -2 -28 -8 -28 -13 0 -6 4 -8 9 -5 9 6 138 -17 146
-26 2 -2 -28 -2 -67 0 -93 6 -83 -13 13 -23 39 -4 96 -13 127 -20 31 -8 58
-12 60 -10 11 10 -13 25 -41 26 -18 0 -41 5 -52 10 -14 6 -7 7 25 4 74 -9 133
-27 118 -36 -7 -4 -10 -10 -8 -12 3 -3 123 -37 268 -76 292 -79 399 -100 434
-84 l22 10 -26 17 c-38 25 -457 129 -938 233 -19 5 -47 7 -62 5z m509 -128
c-3 -3 -12 -4 -19 -1 -8 3 -5 6 6 6 11 1 17 -2 13 -5z m262 -60 c186 -48 228
-63 175 -64 -17 0 -118 25 -225 56 -291 83 -262 88 50 8z"/>
<path d="M7405 1994 c-5 -1 -22 -5 -37 -8 l-27 -6 14 -41 c26 -74 44 -69 -250
-69 l-265 0 0 -45 0 -45 265 0 c301 0 276 9 250 -90 -24 -92 -71 -175 -129
-227 -45 -41 -71 -54 -180 -92 -69 -24 -126 -47 -126 -52 0 -11 39 -89 44 -89
21 0 154 49 201 73 86 46 184 146 229 235 52 104 101 332 72 332 -7 0 -18 24
-25 53 -16 62 -23 75 -36 71z"/>
<path d="M7488 1993 c-22 -5 -22 -6 -2 -72 15 -52 16 -52 47 -45 18 3 33 8 35
9 2 2 -4 28 -13 59 -17 57 -22 61 -67 49z"/>
<path d="M6710 1983 c-39 -7 -41 -15 -19 -80 l20 -61 32 10 c18 6 33 12 34 13
2 1 -7 29 -18 63 -11 34 -22 61 -22 61 -1 -1 -13 -4 -27 -6z"/>
<path d="M8615 1930 c-21 -67 -66 -150 -112 -208 l-35 -42 22 -35 c12 -19 25
-35 29 -35 5 0 34 38 66 85 95 138 94 139 97 -207 l3 -293 43 -3 42 -3 0 95 0
96 130 0 130 0 0 40 0 40 -130 0 -130 0 0 60 0 60 130 0 130 0 0 45 0 45 -130
0 -130 0 0 55 0 55 140 0 140 0 0 45 0 45 -180 0 c-99 0 -180 2 -180 4 0 2 7
20 15 39 24 57 20 65 -29 68 l-44 4 -17 -55z"/>
<path d="M5045 1973 c-33 -8 -35 -16 -16 -78 17 -59 18 -60 51 -57 19 1 35 4
36 5 5 5 -38 137 -45 136 -3 -1 -15 -3 -26 -6z"/>
<path d="M5136 1971 c-6 -9 21 -100 34 -115 5 -4 22 -5 38 -1 l30 6 -20 60
c-18 54 -22 59 -48 59 -16 0 -31 -4 -34 -9z"/>
<path d="M6580 1971 c-28 -8 -28 -17 -3 -94 15 -47 16 -48 46 -41 18 3 33 8
35 9 6 6 -36 129 -44 131 -5 1 -20 -1 -34 -5z"/>
<path d="M8416 1923 c-25 -80 -81 -185 -127 -237 -22 -24 -39 -47 -39 -50 0
-4 7 -23 15 -43 l15 -37 40 39 40 39 0 -223 0 -222 43 3 42 3 5 305 5 305 34
78 c38 87 35 97 -25 97 -28 0 -32 -4 -48 -57z"/>
<path d="M4049 1926 c-43 -106 -139 -222 -224 -272 l-45 -26 28 -34 c15 -19
30 -34 34 -34 4 0 55 45 113 100 l105 100 149 0 149 0 -10 -37 c-13 -51 -64
-158 -82 -172 -12 -10 -32 0 -107 48 l-93 59 -32 -26 c-18 -15 -33 -30 -33
-33 -1 -4 42 -35 94 -68 52 -34 95 -63 95 -65 0 -2 -27 -22 -59 -45 -75 -52
-170 -97 -238 -112 -29 -7 -53 -16 -53 -22 0 -5 10 -23 22 -40 12 -18 22 -33
23 -35 5 -8 151 46 220 81 110 56 235 181 287 287 35 72 78 205 78 242 0 17
-14 18 -175 18 -96 0 -175 2 -175 5 0 3 9 24 20 46 22 43 24 40 -42 57 -35 10
-37 9 -49 -22z"/>
<path d="M9207 1953 c-4 -3 -7 -71 -7 -150 l0 -143 290 0 290 0 0 150 0 150
-283 0 c-156 0 -287 -3 -290 -7z m493 -143 l0 -70 -205 0 -205 0 0 70 0 70
205 0 205 0 0 -70z"/>
<path d="M5690 1880 l0 -70 -210 0 -210 0 0 -45 0 -45 180 0 c99 0 180 -3 180
-6 0 -9 -40 -65 -89 -123 -41 -49 -183 -174 -240 -211 l-24 -16 24 -37 c13
-20 28 -37 32 -37 36 0 245 191 311 284 l41 59 5 -204 5 -204 45 0 45 0 3 248
2 247 95 0 95 0 0 45 0 45 -100 0 -100 0 0 70 0 70 -45 0 -45 0 0 -70z"/>
<path d="M8078 1708 c-3 -216 -4 -224 -28 -267 -37 -66 -61 -79 -204 -106 -71
-14 -131 -27 -133 -29 -6 -5 7 -69 16 -84 5 -9 33 -7 110 8 183 36 283 106
322 228 8 22 14 123 16 255 l4 217 -49 0 -50 0 -4 -222z"/>
<path d="M4580 1880 c-12 -23 -20 -43 -18 -44 4 -3 198 -76 219 -82 11 -4 21
7 34 35 10 23 16 43 14 45 -2 3 -47 20 -99 39 -52 19 -103 38 -112 42 -13 5
-22 -3 -38 -35z"/>
<path d="M6121 1878 l-18 -43 86 -31 c47 -17 96 -36 108 -42 12 -7 26 -12 31
-12 10 0 48 78 41 84 -4 4 -219 86 -226 86 -2 0 -12 -19 -22 -42z"/>
<path d="M7660 1690 l0 -230 50 0 50 0 0 230 0 230 -50 0 -50 0 0 -230z"/>
<path d="M3080 1860 l0 -50 219 0 220 0 -21 -47 c-76 -173 -280 -383 -423
-434 -19 -7 -35 -16 -35 -19 0 -3 13 -21 28 -39 22 -26 33 -32 49 -27 44 14
179 110 246 174 l68 66 127 -127 128 -127 38 39 c32 32 37 43 27 54 -6 8 -68
63 -136 123 -69 59 -125 111 -125 115 0 4 20 40 45 80 39 63 86 169 110 247
l6 22 -285 0 -286 0 0 -50z"/>
<path d="M1120 1870 c-12 -8 -9 -10 13 -10 16 0 26 4 22 10 -8 12 -16 12 -35
0z"/>
<path d="M1826 1792 c-12 -12 -5 -40 12 -47 9 -4 64 -25 122 -47 58 -21 141
-54 185 -72 241 -100 255 -105 255 -88 -1 12 -81 68 -155 107 -38 20 -132 60
-210 87 -150 54 -201 69 -209 60z m85 -33 c82 -27 351 -145 375 -165 13 -10
14 -14 4 -11 -12 4 -265 107 -403 165 -21 8 -40 19 -43 24 -7 11 -6 11 67 -13z"/>
<path d="M5072 1709 c-86 -218 -192 -307 -421 -353 l-106 -21 9 -48 8 -48 47
7 c76 11 184 41 237 65 137 63 211 142 297 314 64 129 64 128 22 148 -20 9
-41 17 -48 17 -7 0 -27 -36 -45 -81z"/>
<path d="M6638 1758 c-26 -74 -100 -206 -143 -255 -70 -80 -199 -136 -359
-158 l-48 -7 6 -41 c4 -23 10 -45 15 -50 11 -11 163 20 240 49 163 61 271 175
357 376 19 44 33 82 32 83 -11 9 -69 35 -78 35 -6 0 -16 -15 -22 -32z"/>
<path d="M4511 1689 c-10 -24 -15 -45 -12 -47 3 -1 56 -22 116 -46 l110 -44
17 36 c10 21 18 42 18 48 0 6 -46 28 -102 49 -57 21 -109 40 -115 42 -8 3 -21
-13 -32 -38z"/>
<path d="M6050 1688 c-10 -24 -18 -43 -17 -44 5 -5 231 -93 233 -91 10 12 34
69 34 81 0 9 -13 22 -29 31 -31 15 -177 65 -193 65 -5 0 -17 -19 -28 -42z"/>
<path d="M9130 1390 l0 -200 35 0 c28 0 35 4 35 20 0 18 7 20 85 20 69 0 85
-3 85 -15 0 -11 11 -15 40 -15 l40 0 0 195 0 195 -160 0 -160 0 0 -200z m240
20 l0 -101 -82 3 -83 3 -3 98 -3 97 86 0 85 0 0 -100z"/>
<path d="M9520 1390 l0 -200 40 0 c33 0 40 3 40 20 0 19 7 20 90 20 83 0 90
-1 90 -20 0 -17 7 -20 40 -20 l40 0 0 200 0 200 -170 0 -170 0 0 -200z m260
20 l0 -100 -90 0 -90 0 0 100 0 100 90 0 90 0 0 -100z"/>
<path d="M1564 1401 c3 -5 42 -33 86 -62 44 -29 80 -56 80 -60 0 -5 32 -43 72
-84 82 -86 124 -152 134 -210 3 -22 15 -53 26 -68 11 -16 26 -49 34 -73 7 -25
25 -59 39 -76 21 -25 25 -40 27 -106 3 -129 4 -133 17 -141 8 -5 10 -18 5 -36
-5 -21 -4 -26 5 -20 10 5 11 31 5 104 -5 53 -7 114 -6 137 2 34 -3 45 -33 74
-19 19 -35 44 -35 55 0 29 -20 85 -30 85 -10 0 -30 56 -30 85 0 29 -56 111
-133 195 -32 36 -63 75 -68 88 -5 13 -27 31 -54 42 -25 11 -45 24 -45 29 0 6
-18 20 -40 31 -42 21 -65 26 -56 11z"/>
<path d="M4727 1073 c953 -2 2513 -2 3465 0 953 1 174 2 -1732 2 -1906 0
-2685 -1 -1733 -2z"/>
<path d="M984 899 c-60 -34 -174 -138 -174 -158 0 -11 16 -13 83 -8 l84 6 45
-47 c25 -26 55 -63 67 -84 22 -38 48 -55 63 -40 5 5 9 51 10 103 2 120 -25
215 -71 242 -38 22 -47 21 -107 -14z m130 -61 c24 -49 28 -69 28 -143 1 -126
-9 -128 -78 -13 -28 47 -106 87 -156 80 -44 -5 -49 8 -12 33 14 9 33 24 43 34
31 31 105 71 126 69 13 -2 30 -23 49 -60z"/>
<path d="M3985 904 c-91 -47 -120 -132 -71 -205 17 -25 53 -51 124 -88 125
-66 144 -93 117 -163 -13 -36 -25 -49 -56 -63 -35 -16 -44 -17 -81 -4 -33 11
-44 21 -59 55 -18 39 -21 41 -51 35 -29 -6 -33 -11 -32 -38 5 -106 158 -170
270 -112 41 21 49 31 71 89 50 128 20 186 -129 254 -91 41 -118 66 -118 104 0
31 18 51 63 70 43 18 73 14 106 -14 30 -25 31 -25 61 -8 l30 18 -28 29 c-15
16 -41 36 -59 43 -43 19 -121 18 -158 -2z"/>
<path d="M6106 900 c-64 -25 -148 -108 -177 -174 -18 -42 -21 -64 -17 -136 5
-102 29 -153 104 -218 63 -56 126 -76 228 -70 95 5 141 25 203 90 62 63 87
127 87 218 0 96 -25 152 -95 220 -90 86 -221 114 -333 70z m214 -71 c95 -43
134 -107 135 -220 0 -67 -3 -81 -30 -125 -57 -91 -180 -137 -280 -104 -48 16
-111 72 -137 124 -46 89 -13 243 64 297 72 52 171 63 248 28z"/>
<path d="M7019 907 c-87 -33 -161 -101 -195 -183 -25 -58 -23 -176 3 -236 29
-64 98 -136 158 -164 73 -34 182 -34 253 2 89 44 148 131 154 229 l3 50 -123
3 -123 3 3 -33 3 -33 77 -3 77 -3 -31 -64 c-30 -61 -34 -64 -97 -89 -37 -14
-78 -26 -91 -26 -66 1 -164 79 -197 159 -20 46 -20 136 -1 182 40 93 127 153
223 153 67 0 111 -18 162 -67 l33 -31 25 24 25 24 -26 27 c-50 52 -121 82
-204 86 -47 2 -89 -2 -111 -10z"/>
<path d="M4270 875 l0 -35 75 0 75 0 0 -265 0 -265 35 0 35 0 0 265 0 265 75
0 75 0 0 35 0 35 -185 0 -185 0 0 -35z"/>
<path d="M4680 702 c0 -248 9 -290 71 -346 52 -47 80 -58 155 -58 97 1 164 43
200 127 15 33 19 80 22 263 l4 222 -41 0 -41 0 0 -197 c0 -113 -5 -215 -11
-238 -6 -21 -26 -54 -44 -72 -29 -29 -40 -33 -84 -33 -64 0 -105 20 -128 63
-15 27 -18 65 -21 255 l-3 222 -40 0 -39 0 0 -208z"/>
<path d="M5220 610 l0 -302 123 4 c84 3 134 10 161 22 142 61 213 213 170 366
-15 53 -27 75 -69 116 -67 67 -118 85 -267 91 l-118 5 0 -302z m276 195 c78
-38 114 -100 114 -194 0 -146 -95 -231 -257 -231 l-53 0 0 231 0 232 71 -6
c47 -4 90 -15 125 -32z"/>
<path d="M5760 610 l0 -300 35 0 35 0 0 300 0 300 -35 0 -35 0 0 -300z"/>
<path d="M7460 610 l0 -300 40 0 40 0 0 145 0 146 143 -3 142 -3 3 -142 3
-143 34 0 35 0 0 300 0 300 -35 0 -35 0 0 -120 0 -120 -145 0 -145 0 0 120 0
120 -40 0 -40 0 0 -300z"/>
<path d="M8000 610 l0 -300 40 0 40 0 0 300 0 300 -40 0 -40 0 0 -300z"/>
<path d="M8190 610 l0 -300 75 0 c85 0 200 25 229 49 22 19 46 71 46 100 0 11
-9 44 -20 74 -16 42 -28 58 -60 76 l-40 22 28 24 c25 21 27 29 27 95 0 70 -1
72 -37 105 -44 41 -91 55 -180 55 l-68 0 0 -300z m191 201 c58 -58 27 -142
-59 -162 -24 -5 -47 -7 -53 -4 -5 4 -9 49 -9 101 l0 94 46 0 c37 0 51 -5 75
-29z m29 -246 c37 -19 50 -43 50 -95 0 -68 -49 -100 -156 -100 l-44 0 0 105 0
105 60 0 c35 0 74 -7 90 -15z"/>
<path d="M8620 610 l0 -300 130 0 130 0 0 35 0 35 -90 0 -90 0 0 265 0 265
-40 0 -40 0 0 -300z"/>
<path d="M8930 610 l0 -300 35 0 35 0 0 300 0 300 -35 0 -35 0 0 -300z"/>
<path d="M1562 490 c-26 -12 -50 -33 -63 -54 -11 -19 -31 -41 -44 -50 -29 -19
-42 -55 -24 -67 8 -5 35 -9 60 -9 63 0 102 -15 128 -51 25 -34 64 -52 92 -44
16 5 18 14 13 68 -10 117 -23 153 -65 192 -21 19 -42 35 -47 35 -4 0 -26 -9
-50 -20z m97 -39 c19 -26 40 -126 41 -188 0 -33 -22 -28 -61 11 -39 39 -84 56
-145 56 -24 0 -44 4 -44 9 0 6 25 34 56 63 91 87 120 96 153 49z"/>
</g>
</svg>
